<?xml version="1.0" encoding="UTF-8" standalone="no"?>
<!-- Created with Inkscape (http://www.inkscape.org/) -->

<svg
   width="218.93423mm"
   height="201.37889mm"
   viewBox="0 0 218.93423 201.37889"
   version="1.1"
   id="svg1142"
   xmlns="http://www.w3.org/2000/svg"
   xmlns:svg="http://www.w3.org/2000/svg">
  <defs
     id="defs1139">
    <clipPath
       clipPathUnits="userSpaceOnUse"
       id="clipPath528">
      <path
         d="M 8189.5,11051 H 4643.64 c -231.83,0 -413.41,189.1 -413.68,412.4 -0.03,23.1 1.88,46.5 5.88,70.2 l 389.24,2296.8 c 33.61,199.2 205.66,344.6 407.81,344.6 h 61.7 v -1 0 c 5.51,-706.7 584.37,-1282.1 1291.13,-1282.1 149.99,0 294.45,26.1 428.37,73.8 l 461.99,-814.6 272.87,-412.9 c 32.6,-49.6 76.75,-89.3 127.91,-116.8 51.17,-27.1 108.35,-42.2 168.54,-42.2 69.72,0 137.44,20.1 195.63,58.7 19.56,13.1 37.62,27.6 54.17,44.2 l 389.25,-507.2 c -74.24,-76.2 -178.08,-123.9 -294.95,-123.9"
         id="path526" />
    </clipPath>
    <linearGradient
       x1="0"
       y1="0"
       x2="1"
       y2="0"
       gradientUnits="userSpaceOnUse"
       gradientTransform="matrix(2336.9,0,0,-2336.9,6241.14,12613)"
       spreadMethod="pad"
       id="linearGradient534">
      <stop
         style="stop-opacity:1;stop-color:#f7bc0a"
         offset="0"
         id="stop530" />
      <stop
         style="stop-opacity:1;stop-color:#dca913"
         offset="1"
         id="stop532" />
    </linearGradient>
  </defs>
  <g
     id="layer1"
     transform="translate(35.472861,-69.221351)">
    <path
       d="m -0.32349557,232.58067 v 0.45861 L -14.107581,254.28709 v 15.50882 h -7.925859 v -15.27599 l -13.439421,-21.48064 v -0.45861 h 9.189508 l 8.385174,14.35806 8.7298392,-14.35806 h 8.84484423"
       style="fill:#1b2e4f;fill-opacity:1;fill-rule:nonzero;stroke:none;stroke-width:0.0352778"
       id="path504" />
    <path
       d="m 12.368037,263.1337 h 17.230372 v 6.66221 H 4.4421793 V 232.58067 H 29.311248 v 6.604 H 12.368037 v 8.38553 h 14.645922 l -0.933802,6.54756 h -13.71212 v 9.01594"
       style="fill:#1b2e4f;fill-opacity:1;fill-rule:nonzero;stroke:none;stroke-width:0.0352778"
       id="path506" />
    <path
       d="m 44.128267,262.78903 h 17.115014 v 7.00688 H 36.202409 v -37.21524 h 7.925858 v 30.20836"
       style="fill:#1b2e4f;fill-opacity:1;fill-rule:nonzero;stroke:none;stroke-width:0.0352778"
       id="path508" />
    <path
       d="m 74.050525,262.78903 h 17.115014 v 7.00688 H 66.124667 v -37.21524 h 7.925858 v 30.20836"
       style="fill:#1b2e4f;fill-opacity:1;fill-rule:nonzero;stroke:none;stroke-width:0.0352778"
       id="path510" />
    <path
       d="m 116.86752,262.41579 c 1.58855,-1.01388 2.776,-2.46979 3.56093,-4.36492 0.78423,-1.89406 1.17722,-4.12714 1.17722,-6.69184 0,-4.05694 -0.86113,-7.22489 -2.58445,-9.50383 -1.72261,-2.27894 -4.23121,-3.41842 -7.52369,-3.41842 -3.44593,0 -6.06883,1.11831 -7.868,3.35845 -1.80023,2.24014 -2.69981,5.31283 -2.69981,9.22161 0,4.05694 0.86148,7.22595 2.5848,9.50383 1.72262,2.27859 4.24957,3.41736 7.58085,3.41736 2.25883,0 4.18323,-0.50694 5.77215,-1.52224 z m -15.90887,5.71465 c -2.776714,-1.64571 -4.87292,-3.93418 -6.28897,-6.86329 -1.417108,-2.92876 -2.125486,-6.32742 -2.125486,-10.19387 0,-4.28977 0.862189,-7.87752 2.584803,-10.7703 1.723319,-2.88925 4.01073,-5.03414 6.863643,-6.43114 2.8515,-1.397 6.02015,-2.0955 9.50489,-2.0955 3.98181,0 7.36071,0.82197 10.13707,2.46944 2.77566,1.64395 4.86198,3.93348 6.2604,6.86153 1.397,2.92806 2.09655,6.32883 2.09655,10.19528 0,4.28978 -0.85301,7.87823 -2.55587,10.76854 -1.70462,2.89172 -3.98286,5.03555 -6.83507,6.43255 -2.85291,1.39735 -6.02156,2.09656 -9.50524,2.09656 -3.98216,0 -7.36107,-0.82303 -10.13672,-2.4698"
       style="fill:#1b2e4f;fill-opacity:1;fill-rule:nonzero;stroke:none;stroke-width:0.0352778"
       id="path512" />
    <path
       d="m 183.46138,232.58067 v 0.45861 l -9.53418,36.75663 h -10.10814 l -4.59458,-20.38774 c -0.53657,-2.2613 -1.01529,-4.99886 -1.43545,-8.21266 -0.42192,3.2138 -0.90029,5.95136 -1.43616,8.21266 l -4.47992,20.38774 h -10.10814 l -9.59133,-36.75663 v -0.45861 h 8.32803 l 4.76638,20.15772 c 0.26741,1.07245 0.55492,2.49062 0.86184,4.24992 0.30585,1.76142 0.57432,3.50379 0.80398,5.2264 0.61207,-3.943 1.18639,-7.10212 1.72296,-9.47632 l 4.70959,-20.15772 h 9.24701 l 4.59458,19.75556 c 0.68897,3.10091 1.30139,6.4135 1.83797,9.93634 0.22966,-1.60867 0.50694,-3.31153 0.83255,-5.11175 0.32491,-1.80129 0.64065,-3.40643 0.94792,-4.82459 l 4.42207,-19.75556 h 8.21302"
       style="fill:#1b2e4f;fill-opacity:1;fill-rule:nonzero;stroke:none;stroke-width:0.0352778"
       id="path514" />
    <path
       d="m 127.75882,191.32331 -23.00393,-37.16161 24.08343,32.27917 c 0.47802,0.59972 0.69039,1.3088 0.69039,1.99672 0,1.16769 -0.61948,2.30011 -1.76989,2.88572 z m 2.8314,-6.95325 -9.11331,-13.78655 -0.0176,-0.0353 -23.128109,-31.05503 1.008591,-0.83255 c 2.106088,-1.7145 4.034718,-3.66184 5.662788,-5.83848 4.86622,-6.56519 7.76852,-14.63322 7.83908,-23.39269 0,-0.10583 0,-0.23283 -0.0176,-0.33867 H 101.5873 v 0.0529 c 0,0.0882 0,0.19756 -0.0176,0.28575 -0.14182,15.67745 -12.935655,28.40214 -28.667074,28.40214 -15.71378,0 -28.507619,-12.72469 -28.666721,-28.40214 v -0.33867 H 32.981548 v 0.33867 c 0.159456,21.88986 18.013891,39.63811 39.921038,39.63811 3.291417,0 6.476647,-0.40922 9.538053,-1.16769 2.583391,-0.65617 5.042958,-1.64748 7.41433,-2.88573 l 18.792821,33.16112 9.53806,14.40391 c 2.26483,3.43253 6.8834,4.37092 10.29864,2.10608 2.17664,-1.43227 3.34433,-3.80294 3.34433,-6.21241 0,-1.41464 -0.40675,-2.82928 -1.2386,-4.10281"
       style="fill:#1b2e4f;fill-opacity:1;fill-rule:nonzero;stroke:none;stroke-width:0.0352778"
       id="path516" />
    <path
       d="m 72.911406,80.466426 c 12.286544,0 22.788738,7.775222 26.866143,18.658416 h 11.734091 c -1.33209,-5.17525 -3.66077,-9.994194 -6.80508,-14.199305 C 99.551066,78.039315 92.202352,72.839371 83.467575,70.581593 60.543017,64.66551 39.548506,78.755454 34.266012,99.124842 h 11.77043 C 50.113848,88.241648 60.624509,80.466426 72.911406,80.466426"
       style="fill:#f6bc0a;fill-opacity:1;fill-rule:nonzero;stroke:none;stroke-width:0.0352778"
       id="path518" />
    <path
       d="m 146.94112,215.26634 c -2.61903,2.68817 -6.28227,4.37092 -10.40519,4.37092 H 11.445876 c -9.0244077,0 -15.8905215,-8.12448 -14.3862771,-17.02506 l 13.7315221,-81.026 c 1.185686,-7.02733 7.255227,-12.15672 14.38663,-12.15672 h 2.176639 v 0.0353 c 0.19438,24.9308 20.615274,45.22964 45.548196,45.22964 5.291314,0 10.387542,-0.92075 15.111941,-2.6035 l 16.297983,28.73727 9.62624,14.5662 c 1.15006,1.74978 2.70757,3.1503 4.51239,4.12044 1.80516,0.95603 3.82234,1.48872 5.94571,1.48872 2.45957,0 4.84858,-0.70908 6.90139,-2.0708 0.69004,-0.46214 1.32715,-0.97367 1.911,-1.55928 2.35338,-2.33539 3.71581,-5.52097 3.71581,-8.90058 0,-2.45886 -0.72531,-4.84717 -2.08774,-6.90034 l -9.11331,-13.80066 -0.0885,-0.10583 -0.0533,-0.0917 -19.96016,-26.80758 c 7.85671,-8.13858 12.74057,-19.18053 12.82912,-31.33725 h 4.03471 c 7.09578,0 13.16532,5.09411 14.36864,12.08617 l 14.06807,81.04363 c 0.8315,4.86834 -0.81385,9.50384 -3.98144,12.70706"
       style="fill:#f6bc0a;fill-opacity:1;fill-rule:nonzero;stroke:none;stroke-width:0.0352778"
       id="path520" />
    <g
       id="g522"
       transform="matrix(0.03527778,0,0,-0.03527778,-152.37142,609.49197)">
      <g
         id="g524"
         clip-path="url(#clipPath528)">
        <path
           d="M 8189.5,11051 H 4643.64 c -231.83,0 -413.41,189.1 -413.68,412.4 -0.03,23.1 1.88,46.5 5.88,70.2 l 389.24,2296.8 c 33.61,199.2 205.66,344.6 407.81,344.6 h 61.7 v -1 0 c 5.51,-706.7 584.37,-1282.1 1291.13,-1282.1 149.99,0 294.45,26.1 428.37,73.8 l 461.99,-814.6 272.87,-412.9 c 32.6,-49.6 76.75,-89.3 127.91,-116.8 51.17,-27.1 108.35,-42.2 168.54,-42.2 69.72,0 137.44,20.1 195.63,58.7 19.56,13.1 37.62,27.6 54.17,44.2 l 389.25,-507.2 c -74.24,-76.2 -178.08,-123.9 -294.95,-123.9"
           style="fill:url(#linearGradient534);fill-opacity:1;fill-rule:nonzero;stroke:none"
           id="path536" />
      </g>
    </g>
  </g>
</svg>
